<?xml version="1.0" encoding="UTF-8" standalone="no"?>
<svg
   xmlns:dc="http://purl.org/dc/elements/1.1/"
   xmlns:cc="http://creativecommons.org/ns#"
   xmlns:rdf="http://www.w3.org/1999/02/22-rdf-syntax-ns#"
   xmlns:svg="http://www.w3.org/2000/svg"
   xmlns="http://www.w3.org/2000/svg"
   xmlns:sodipodi="http://sodipodi.sourceforge.net/DTD/sodipodi-0.dtd"
   xmlns:inkscape="http://www.inkscape.org/namespaces/inkscape"
   version="1.1"
   x="0px"
   y="0px"
   viewBox="0 0 16 16"
   xml:space="preserve"
   id="svg843"
   sodipodi:docname="close.svg"
   inkscape:version="1.0.1 (c497b03c, 2020-09-10)"
   width="16"
   height="16"><metadata
     id="metadata849"><rdf:RDF><cc:Work
         rdf:about=""><dc:format>image/svg+xml</dc:format><dc:type
           rdf:resource="http://purl.org/dc/dcmitype/StillImage" /><dc:title>close</dc:title></cc:Work></rdf:RDF></metadata><defs
     id="defs847" /><sodipodi:namedview
     pagecolor="#ffffff"
     bordercolor="#666666"
     borderopacity="1"
     objecttolerance="10"
     gridtolerance="10"
     guidetolerance="10"
     inkscape:pageopacity="0"
     inkscape:pageshadow="2"
     inkscape:window-width="1920"
     inkscape:window-height="1035"
     id="namedview845"
     showgrid="false"
     inkscape:zoom="5.74"
     inkscape:cx="8.7567201"
     inkscape:cy="13.228699"
     inkscape:window-x="0"
     inkscape:window-y="23"
     inkscape:window-maximized="1"
     inkscape:current-layer="svg843"
     inkscape:document-rotation="0"
     fit-margin-top="0"
     fit-margin-left="0"
     fit-margin-right="0"
     fit-margin-bottom="0"
     showguides="false" /><title
     id="title833">close</title><g
     id="g837"

     transform="matrix(0.21978022,0,0,0.21978022,-2.989011,-2.989011)"><path
       d="M 50,13.6 C 29.9,13.6 13.6,29.9 13.6,50 13.6,70.1 29.9,86.4 50,86.4 70.1,86.4 86.4,70.1 86.4,50 v 0 C 86.4,29.9 70.1,13.6 50,13.6 Z m 17.5,49.7 c 1.4,1.4 1.4,3.6 0,4.9 -1.4,1.4 -3.6,1.4 -4.9,0 0,0 0,0 0,0 L 49.6,55.3 36.7,68.2 c -1.4,1.4 -3.6,1.4 -4.9,0 -1.4,-1.4 -1.4,-3.6 0,-4.9 0,0 0,0 0,0 L 44.7,50.4 31.8,37.5 c -1.4,-1.4 -1.4,-3.6 0,-4.9 1.4,-1.4 3.6,-1.4 4.9,0 0,0 0,0 0,0 L 49.6,45.5 62.5,32.6 c 1.4,-1.4 3.6,-1.4 4.9,0 1.4,1.4 1.4,3.6 0,4.9 L 54.6,50.4 Z"
       id="path835"
       style="fill:#FFFFFF" /></g></svg>
